<svg viewBox="0 0 72 72" xmlns="http://www.w3.org/2000/svg"><g fill="none" stroke="#000" stroke-linecap="round" stroke-width="2"><g stroke-linejoin="round"><path d="m56.2 47c1.8-3.4 2.8-7.2 2.8-11 0-12.7-10.3-23-23-23s-23 10.3-23 23c0 3.7.9 7.4 2.7 10.7 0 .1 0 .1.1.2"/><path d="m29.6 58.1c2.1.6 4.2.9 6.4.9 2.1 0 4.2-.3 6.2-.8"/><path d="m45.8 45.2c-5.7 4.7-13.9 4.7-19.6 0"/></g><path d="m31.7 33.4c-1-2.4-3.8-3.5-6.2-2.4-1.1.5-1.9 1.3-2.4 2.4" stroke-miterlimit="10"/><path d="m48.9 33.4c-1-2.4-3.8-3.5-6.2-2.4-1.1.5-1.9 1.3-2.4 2.4" stroke-miterlimit="10"/><path d="m28.3 61.7c-.8965-.7643-1.554-1.366-1.8-2.4-.2426-2.983-1.549-5.769-2.8-8.1-.3-.5-.9-2-1.5-2.2-.9-.3-1.5 0-1.7 1.1s.6 3.3.8 3.9c-2.357-1.253-4.571-2.707-6.4-4.1-1.2-.7-2.2-.4-2.7.4-.2.3-.2.5-.3.7-1.5-1.1-2.6-.7-3.1 0-.5.6-.5 1.5-.1 2.1-.2.1-.4.3-.5.5-.6 1-.3 2.3.7 2.9.2.1.5.4.9.6-.1.1-.2.1-.2.2-.5.6-.5 1.6 0 2.2 1.6 2.8 9 4.9 11.5 5.5l1.8 1.8" stroke-linejoin="round"/><path d="m48.6 66.8 1.8-1.8c2.5-.6 9.9-2.8 11.5-5.5.5-.6.5-1.6-.1-2.1-.1-.1-.1-.2-.2-.2.5-.3.8-.6.9-.6 1-.6 1.3-1.9.7-2.9-.1-.2-.3-.4-.5-.5.4-.6.4-1.5-.1-2.1s-1.6-1.1-3.1 0c0-.3-.1-.6-.3-.7-.5-.7-1.4-1.1-2.7-.4 0 0-.1 0-.1.1-1.9 1.6-4.1 2.9-6.3 4 .5026-1.286 1.69-5.814-.6-5.1-.6.2-1.2 1.7-1.5 2.2-1.738 2.511-2.258 5.218-2.8 8.1.03102 1.077-1.076 1.676-1.8 2.4" stroke-linejoin="round"/></g></svg>