<svg width="32" height="32" viewBox="0 0 100 100" fill="none" xmlns="http://www.w3.org/2000/svg">
  <defs>
    <linearGradient id="duckGlassGrad" x1="0" y1="0" x2="100" y2="100" gradientUnits="userSpaceOnUse">
      <stop offset="0%" stop-color="#ffffff" stop-opacity="0.22"/>
      <stop offset="100%" stop-color="#ffffff" stop-opacity="0.04"/>
    </linearGradient>
    <linearGradient id="duckStrokeGrad" x1="0" y1="0" x2="100" y2="100" gradientUnits="userSpaceOnUse">
      <stop offset="0%" stop-color="#ffffff" stop-opacity="0.8"/>
      <stop offset="100%" stop-color="#ffffff" stop-opacity="0.2"/>
    </linearGradient>
  </defs>

  <!-- Liquid Glass Container -->
  <rect width="92" height="92" x="4" y="4" rx="22" fill="url(#duckGlassGrad)" stroke="url(#duckStrokeGrad)" stroke-width="3"/>
  
  <!-- Sleek Duck Silhouette -->
  <!-- Duck Head & Body Contour -->
  <path d="M26 62 C26 48 36 42 44 42 C48 34 54 26 66 26 C72 26 78 30 78 35 C78 38 74 41 70 41 C62 41 56 46 56 52 C64 52 76 56 76 66 C76 72 66 74 52 74 C36 74 26 70 26 62 Z" fill="none" stroke="white" stroke-width="5" stroke-linecap="round" stroke-linejoin="round"/>
  <!-- Duck Beak -->
  <path d="M72 32 L86 34 C89 35 89 38 85 39 L74 40" fill="none" stroke="white" stroke-width="4" stroke-linecap="round" stroke-linejoin="round"/>
  <!-- Eye -->
  <circle cx="62" cy="34" r="3" fill="white"/>
</svg>
